<svg xmlns="http://www.w3.org/2000/svg" width="25" height="25" viewBox="0 0 25 25">
  <path id="ig" d="M9.944,3A6.945,6.945,0,0,0,3,9.944V21.056A6.945,6.945,0,0,0,9.944,28H21.056A6.945,6.945,0,0,0,28,21.056V9.944A6.945,6.945,0,0,0,21.056,3ZM23.833,5.778a1.389,1.389,0,1,1-1.389,1.389A1.389,1.389,0,0,1,23.833,5.778ZM15.5,8.556A6.944,6.944,0,1,1,8.556,15.5,6.945,6.945,0,0,1,15.5,8.556Zm0,2.778A4.167,4.167,0,1,0,19.667,15.5,4.167,4.167,0,0,0,15.5,11.333Z" transform="translate(-3 -3)" fill="#fcfcfc"/>
</svg>
