<svg xmlns="http://www.w3.org/2000/svg" width="72" height="71.732" viewBox="0 0 72 71.732">
  <g id="lighthouse" transform="translate(0.289)">
    <path id="Path_11" data-name="Path 11" d="M0,71.732V0H71.358V71.732Z" fill="none"/>
    <g id="Group_32" data-name="Group 32" transform="translate(-0.289 0.215)">
      <path id="Path_12" data-name="Path 12" d="M35.7.215a1.206,1.206,0,0,0-.717.179L25.789,6.123l-.4.313c-1.149.716-2.6,1.717-2.6,3.58v1.029L1.714,4.467A1.482,1.482,0,0,0,1,4.422a1.432,1.432,0,0,0-.179,2.82L23.772,14.4a1.465,1.465,0,0,0,.583.045h1.3v2.864h-.986a1.484,1.484,0,0,0-.628,0,1.5,1.5,0,0,0-.269.045.948.948,0,0,0-.134.045L.818,24.517a1.458,1.458,0,1,0,.9,2.775l21.071-6.579v1.343a3.822,3.822,0,0,0,3.093,3.759L24,34.049,21.4,45.193a1.426,1.426,0,0,0-.179.9L18.8,56.426a1.432,1.432,0,0,0-.314,1.343L16.15,67.928a1.441,1.441,0,0,0-.179.761l-.314,1.3a1.423,1.423,0,0,0,.275,1.2,1.453,1.453,0,0,0,1.115.543h37.3a1.453,1.453,0,0,0,1.115-.543,1.423,1.423,0,0,0,.275-1.2l-1.973-8.548a1.389,1.389,0,0,0-.179-.716l-1.838-8.011a1.447,1.447,0,0,0-.314-1.343L47.489,34.5a1.447,1.447,0,0,0-.179-.85l-1.793-7.832a3.822,3.822,0,0,0,3.093-3.759V20.712l21.071,6.579a1.458,1.458,0,1,0,.9-2.775L47.758,17.4a.948.948,0,0,0-.134-.045,1.465,1.465,0,0,0-.583-.045h-1.3V14.447H47a1.465,1.465,0,0,0,.583-.045c.056-.017.123-.022.179-.045l22.82-7.116a1.444,1.444,0,1,0-.628-2.82,1.5,1.5,0,0,0-.269.045L48.609,11.046V10.016c0-2-1.311-2.864-2.6-3.58L36.549.394A1.842,1.842,0,0,0,35.7.215ZM28.524,14.447H42.871v2.864H28.524ZM28.793,25.9H39.732L27.4,31.9ZM45.023,36.421,46.457,42.6,22.113,54.636l1.793-7.7Zm4.214,18.036,1.39,6.221L33.9,68.868H20.1Z" transform="translate(0.289 -0.215)" fill="#fcfcfc"/>
    </g>
  </g>
</svg>
