<svg id="locationico" xmlns="http://www.w3.org/2000/svg" width="40" height="40" viewBox="0 0 40 40">
  <path id="Path_5" data-name="Path 5" d="M0,40V0H40V40Z" fill="none"/>
  <g id="Group_10" data-name="Group 10" transform="translate(3.333 1.667)">
    <path id="Path_6" data-name="Path 6" d="M31,7.167a10,10,0,0,0-10,10C21,24.31,31,35.5,31,35.5S41,24.31,41,17.167a10,10,0,0,0-10-10ZM31,13.6a3.571,3.571,0,1,1-3.571,3.571A3.569,3.569,0,0,1,31,13.6ZM19,30.5,14.333,42.167H47.667L43,30.5H39.021c-.808,1.218-1.62,2.347-2.367,3.333h4.092l2,5H19.255l2-5h4.092c-.747-.987-1.558-2.115-2.367-3.333Z" transform="translate(-14.333 -7.167)" fill="#3675e5"/>
  </g>
</svg>
