<svg xmlns="http://www.w3.org/2000/svg" width="72" height="71.959" viewBox="0 0 72 71.959">
  <g id="mountain" transform="translate(0.049)">
    <path id="Path_9" data-name="Path 9" d="M0,71.959V0H71.948V71.959Z" transform="translate(-0.022)" fill="none"/>
    <g id="Group_30" data-name="Group 30" transform="translate(-0.049 11.128)">
      <path id="Path_10" data-name="Path 10" d="M36,20.639a1.483,1.483,0,0,0-1.046.389,1.355,1.355,0,0,0-.439.994V32.428a1.462,1.462,0,0,0,0,.443V44.952L21.56,57.395,15.381,51.46a1.48,1.48,0,0,0-2.035,0L.393,63.9A1.336,1.336,0,0,0,0,65.247a1.4,1.4,0,0,0,1.029.988,1.467,1.467,0,0,0,1.4-.378L14.364,54.392l5.161,4.958L.393,77.727a1.353,1.353,0,0,0-.422,1.226V81.47H71.931V78.948a1.339,1.339,0,0,0-.422-1.221L52.378,59.35l5.161-4.958L69.474,65.857a1.467,1.467,0,0,0,1.4.378,1.4,1.4,0,0,0,1.029-.988,1.336,1.336,0,0,0-.394-1.345L58.557,51.46a1.48,1.48,0,0,0-2.035,0l-6.178,5.935L37.391,44.952V33.584l12.042-4.558a1.363,1.363,0,0,0,.073-2.544L36.553,20.769a1.42,1.42,0,0,0-.557-.13Zm-.045,26.84L49.123,60.127a1.437,1.437,0,0,0,.41.405l2.221,2.122-4.138,1.987-5.909-4.256-5.757,4.148-5.757-4.148-5.909,4.256-4.138-1.987,2.221-2.133a1.441,1.441,0,0,0,.422-.394Z" transform="translate(0.049 -20.639)" fill="#fcfcfc"/>
    </g>
  </g>
</svg>
