<svg xmlns="http://www.w3.org/2000/svg" width="25" height="25" viewBox="0 0 25 25">
  <path id="tw" d="M25.222,3H5.778A2.777,2.777,0,0,0,3,5.778V25.222A2.777,2.777,0,0,0,5.778,28H25.222A2.777,2.777,0,0,0,28,25.222V5.778A2.777,2.777,0,0,0,25.222,3Zm-2.708,9.047v.476a9.7,9.7,0,0,1-9.763,9.762,10,10,0,0,1-5.238-1.547h.833a7.7,7.7,0,0,0,4.286-1.429,3.472,3.472,0,0,1-3.214-2.381,5.2,5.2,0,0,1,.6.119,2.615,2.615,0,0,0,.953-.119A3.44,3.44,0,0,1,8.231,13.6a5.94,5.94,0,0,0,1.547.476A3.9,3.9,0,0,1,8.231,11.1a2.734,2.734,0,0,1,.476-1.667A9.663,9.663,0,0,0,15.731,13c0-.238-.119-.476-.119-.833a3.455,3.455,0,0,1,3.453-3.453,3.243,3.243,0,0,1,2.5,1.071,5.779,5.779,0,0,0,2.143-.833,3.48,3.48,0,0,1-1.547,1.9,6.512,6.512,0,0,0,2.024-.6A8.039,8.039,0,0,1,22.514,12.047Z" transform="translate(-3 -3)" fill="#fcfcfc"/>
</svg>
