<svg xmlns="http://www.w3.org/2000/svg" width="25" height="20" viewBox="0 0 25 20">
  <path id="yt" d="M26.478,6.733a3.132,3.132,0,0,0-2.21-2.21C22.317,4,14.5,4,14.5,4s-7.818,0-9.767.523a3.132,3.132,0,0,0-2.21,2.21A44.554,44.554,0,0,0,2,14a44.554,44.554,0,0,0,.523,7.267,3.132,3.132,0,0,0,2.21,2.21C6.682,24,14.5,24,14.5,24s7.817,0,9.767-.522a3.13,3.13,0,0,0,2.21-2.21A44.554,44.554,0,0,0,27,14,44.554,44.554,0,0,0,26.478,6.733ZM12,18.33V9.67L19.5,14Z" transform="translate(-2 -4)" fill="#fcfcfc"/>
</svg>
